# xmcd
#
# Track frame offsets: 
#        150
#        14840
#        26910
#        37285
#        48730
#        61337
#        72397
#        82820
#        99737
#        113975
#        124400
#        133992
#
# Disc length: 1914 seconds
#
# Revision: 2
# Processed by: cddbd v1.4PL0 Copyright (c) Steve Scherf et al.
# Submitted via: ExactAudioCopy v0.90b3
#
DISCID=bd07780c
DTITLE=Willie Nelson - Who'll Buy My Memories - Disc 1
DYEAR=1900
DGENRE=Country
TTITLE0=Who'll Buy My Memories
TTITLE1=Jimmy's Road
TTITLE2=It Should Be Easier Now
TTITLE3=Will You Remember
TTITLE4=I Still Can't Believe You're Gone
TTITLE5=Yesterday's Wine
TTITLE6=It's Not Supposed To Be That Way
TTITLE7=Country Williw
TTITLE8=The Sound In Your Mind
TTITLE9=Permanently Lonely
TTITLE10=So Much To Do
TTITLE11=Lonely Little Mansion
EXTD=
EXTT0=
EXTT1=
EXTT2=
EXTT3=
EXTT4=
EXTT5=
EXTT6=
EXTT7=
EXTT8=
EXTT9=
EXTT10=
EXTT11=
PLAYORDER=
